# Wavefront Obj file
# 
# verts: 60 uv-s: 126
mtllib Entrance_LP.mtl

g Floor_Entrance

v -1100.301025 0.000000 1100.000000
v 2200.000488 0.000000 1100.000000
v -1100.301025 0.000000 -1100.000000
v 2200.000488 0.000000 -1100.000000
v 2200.000488 -300.000000 1100.000000
v -1100.301025 -300.000000 1100.000000
v 2200.000488 -300.000000 -1100.000000
v -1100.301025 -300.000000 -1100.000000
# 8 positions

vt 0.150372 0.010000
vt 0.010000 0.496728
vt 0.990000 0.878372
vt 0.503272 0.886000
vt 0.990000 0.952372
vt 0.076372 0.010000
vt 0.503272 0.812000
vt 0.084000 0.496728
vt 0.010000 0.503272
vt 0.496728 0.503272
vt 0.010000 0.990000
vt 0.496728 0.990000
# 12 texture coordinates

vn -0.090320 0.993606 0.067746
vn 0.087362 0.961075 0.262111
vn -0.087362 0.961075 -0.262111
vn 0.090320 0.993606 -0.067746
vn 0.799974 0.000000 0.600035
vn -0.316202 0.000000 0.948692
vn 0.316202 0.000000 -0.948692
vn -0.799974 0.000000 -0.600035
# 8 normals

usemtl Floor
f 5/5/5 7/7/7 4/4/4
f 1/9/1 4/12/4 3/11/3
f 5/5/5 4/4/4 2/2/2
f 1/9/1 2/10/2 4/12/4
f 8/8/8 6/6/6 1/1/1
f 6/6/6 2/2/2 1/1/1
f 3/3/3 7/7/7 8/8/8
f 3/3/3 4/4/4 7/7/7
f 6/6/6 5/5/5 2/2/2
f 8/8/8 1/1/1 3/3/3

g Walls_Entrance

v 2200.001465 800.014343 1100.001099
v 2200.001465 800.014343 -1100.001099
v -1100.302002 800.014343 1100.001099
v 2138.568359 0.006746 299.999969
v 2138.568359 0.006746 -299.999969
v 2138.567383 800.015137 314.039581
v 2138.567383 800.015137 -314.039581
v 2200.000488 800.015503 314.039764
v 2200.000488 800.015503 -314.039764
v 2199.999023 0.006737 300.000854
v 2199.999023 0.006737 -300.000854
v 2124.529297 0.007463 1025.390015
v 2124.529297 0.007463 -1025.390015
v -1024.829834 0.007463 1025.390015
v 2129.985596 794.556702 305.458282
v 2129.985596 794.556702 -305.458282
v 2138.568359 800.014832 1039.431030
v 2138.568359 800.014832 -1039.431030
v -1038.868896 800.014832 1039.431030
v 2200.000488 795.903137 304.112030
v 2200.000488 795.903137 -304.112030
v 2138.567383 795.902771 304.111816
v 2138.567383 795.902771 -304.111816
v 2128.640625 0.006746 304.112274
v 2128.640625 0.006746 -304.112274
v 2128.639160 785.975159 304.111786
v 2128.639160 785.975159 -304.111786
v 2128.639160 795.902771 314.039581
v 2128.639160 795.902771 -314.039581
v 2128.640137 795.902527 1029.503418
v 2128.640137 795.902527 -1029.503418
v -1028.940674 795.902527 1029.503418
v -1024.828125 785.974792 -1025.390991
v -1028.940674 795.902527 -1029.503418
v 2200.000488 785.975403 299.999725
v 2200.000488 785.975403 -299.999725
v 2124.528076 0.006746 314.039917
v 2124.528076 0.006746 -314.039917
v 2124.527588 785.974792 1025.390991
v 2124.527588 785.974792 -1025.390991
v -1024.828125 785.974792 1025.390991
v -1038.868896 800.014832 -1039.431030
v 2124.526855 785.975159 314.039581
v 2124.526855 785.975159 -314.039581
v -1024.829834 0.007463 -1025.390015
v -1100.302002 800.014343 -1100.001099
v 2138.567139 785.975159 299.999573
v 2138.567139 785.975159 -299.999573
v 2198.312744 -5.188546 1098.537720
v -1098.613281 -5.188546 -1098.537720
v -1098.613281 -5.188546 1098.537720
v 2198.312744 -5.188546 -1098.537720
# 52 positions

vt 0.136453 0.299267
vt 0.136453 0.990000
vt 0.010000 0.299267
vt 0.010000 0.990000
vt 0.272250 0.990000
vt 0.272250 0.299267
vt 0.145797 0.299267
vt 0.145797 0.990000
vt 0.280924 0.990000
vt 0.280924 0.322860
vt 0.406074 0.990000
vt 0.406074 0.322860
vt 0.404267 0.990000
vt 0.404267 0.322860
vt 0.414457 0.322860
vt 0.539607 0.322860
vt 0.537801 0.990000
vt 0.539607 0.990000
vt 0.537801 0.322860
vt 0.414457 0.990000
vt 0.548950 0.990000
vt 0.548950 0.644731
vt 0.675404 0.644731
vt 0.675404 0.990000
vt 0.548021 0.634665
vt 0.673141 0.634665
vt 0.671334 0.312588
vt 0.673141 0.312588
vt 0.671334 0.634665
vt 0.548021 0.312588
vt 0.682413 0.636329
vt 0.693836 0.636329
vt 0.695774 0.636329
vt 0.695774 0.066582
vt 0.693836 0.066582
vt 0.682413 0.066582
vt 0.718406 0.701964
vt 0.718406 0.132217
vt 0.706983 0.701964
vt 0.706983 0.132217
vt 0.705046 0.701964
vt 0.705046 0.132217
vt 0.685568 0.990000
vt 0.809000 0.989775
vt 0.810976 0.864133
vt 0.810558 0.989125
vt 0.811201 0.987566
vt 0.685568 0.863546
vt 0.854203 0.320069
vt 0.853979 0.443501
vt 0.728336 0.445477
vt 0.853332 0.445059
vt 0.851770 0.445702
vt 0.727749 0.320069
vt 0.406074 0.064319
vt 0.281024 0.177783
vt 0.406074 0.177783
vt 0.282664 0.177783
vt 0.281024 0.176174
vt 0.281024 0.064319
vt 0.406074 0.176174
vt 0.282664 0.064319
vt 0.282664 0.176174
vt 0.726890 0.062055
vt 0.851940 0.175519
vt 0.726890 0.175519
vt 0.850300 0.175519
vt 0.851940 0.173910
vt 0.851940 0.062055
vt 0.726890 0.173910
vt 0.850300 0.062055
vt 0.850300 0.173910
vt 0.876836 0.655515
vt 0.865310 0.655515
vt 0.863355 0.655515
vt 0.863355 0.374388
vt 0.865310 0.374388
vt 0.876836 0.374388
vt 0.944734 0.950877
vt 0.944734 0.960558
vt 0.819251 0.949261
vt 0.819251 0.960558
vt 0.819251 0.950877
vt 0.944734 0.949261
vt 0.820867 0.949261
vt 0.820867 0.960558
vt 0.820867 0.950877
vt 0.893326 0.239851
vt 0.883645 0.239851
vt 0.894942 0.365335
vt 0.883645 0.365335
vt 0.893326 0.365335
vt 0.894942 0.239851
vt 0.894942 0.363718
vt 0.883645 0.363718
vt 0.893326 0.363718
vt 0.925996 0.419654
vt 0.936244 0.531461
vt 0.925996 0.531461
vt 0.937945 0.533017
vt 0.936244 0.419654
vt 0.925996 0.533017
vt 0.936244 0.533017
vt 0.937945 0.531461
vt 0.937945 0.419654
vt 0.716143 0.010000
vt 0.705896 0.121808
vt 0.716143 0.121808
vt 0.704195 0.123363
vt 0.705896 0.010000
vt 0.716143 0.123363
vt 0.705896 0.123363
vt 0.704195 0.121808
vt 0.704195 0.010000
# 114 texture coordinates

vn 0.156188 0.088384 0.983765
vn 0.156256 0.089112 -0.983689
vn -0.552047 0.100593 0.827723
vn -0.057525 -0.000001 -0.998344
vn -0.057521 -0.000001 0.998344
vn -0.056996 0.998359 -0.005536
vn -0.055527 0.998444 0.005191
vn 0.994277 0.106835 -0.000575
vn 0.993810 0.111090 0.000576
vn 0.993645 -0.000002 -0.112562
vn 0.993644 -0.000002 0.112564
vn -0.220321 0.000001 -0.975427
vn -0.220321 0.000001 0.975427
vn 0.545680 -0.000000 -0.837994
vn -0.577341 0.577371 -0.577339
vn -0.577333 0.577364 0.577354
vn -0.010735 0.998843 -0.046875
vn -0.010590 0.998853 0.046701
vn 0.022607 0.999141 -0.034720
vn 0.996801 0.056525 -0.056508
vn 0.996801 0.056507 0.056524
vn -0.033207 0.706847 -0.706587
vn -0.033210 0.706588 0.706846
vn -0.707097 -0.000002 -0.707117
vn -0.707094 -0.000002 0.707119
vn -0.707072 0.002915 -0.707136
vn -0.707103 0.002915 0.707105
vn -0.706684 0.707522 -0.003204
vn -0.706075 0.708130 0.003189
vn -0.142012 0.767675 -0.624906
vn -0.141261 0.767516 0.625272
vn 0.319205 0.810779 -0.490659
vn 0.545676 0.007155 0.837966
vn 0.320155 0.810907 0.489828
vn 0.993708 0.000577 -0.111998
vn 0.993708 0.000576 0.112001
vn -0.999984 -0.000002 -0.005699
vn -0.999984 -0.000002 0.005701
vn -0.220325 0.006183 -0.975407
vn -0.220314 0.006186 0.975409
vn 0.545660 0.007155 -0.837976
vn 0.022716 0.999143 0.034611
vn -0.999970 0.005161 -0.005681
vn -0.999970 0.005161 0.005695
vn 0.545680 -0.000000 0.837994
vn -0.551599 0.100578 -0.828024
vn -0.057486 0.004965 -0.998334
vn -0.057338 0.005110 0.998342
vn 0.306410 -0.002052 0.951898
vn -0.554349 -0.002675 -0.832280
vn -0.554801 -0.002676 0.831979
vn 0.306552 -0.002052 -0.951852
# 52 normals

usemtl Wall
f 50/47/50 26/44/26 10/43/10 54/48/54
f 49/41/49 22/37/22 53/42/53 41/39/41
f 49/41/49 41/39/41 42/40/42 40/38/40
f 48/74/48 52/75/52 37/71/37 39/72/39
f 38/81/38 36/80/36 51/84/51 47/83/47
f 52/75/52 46/73/46 33/69/33 35/70/35
f 34/79/34 32/78/32 45/82/45 51/84/51
f 56/99/56 44/98/44 29/94/29 31/95/31
f 30/104/30 28/103/28 43/107/43 55/108/55
f 54/90/54 11/85/11 27/86/27 50/89/50
f 37/116/37 24/112/24 31/115/31 15/110/15
f 14/119/14 30/124/30 23/121/23 36/125/36
f 31/95/31 24/93/24 35/97/35 56/99/56
f 55/108/55 34/106/34 23/102/23 30/104/30
f 44/98/44 56/99/56 13/91/13 19/92/19
f 41/29/41 53/32/53 21/27/21 48/31/48
f 42/88/42 50/89/50 27/86/27 40/87/40
f 42/46/42 39/45/39 26/44/26 50/47/50
f 15/110/15 26/113/26 39/117/39 37/116/37
f 36/125/36 38/126/38 25/122/25 14/119/14
f 13/91/13 56/99/56 35/97/35 33/96/33
f 32/105/32 34/106/34 55/108/55 12/100/12
f 17/111/17 15/110/15 31/115/31 29/114/29
f 28/123/28 30/124/30 14/119/14 16/120/16
f 35/70/35 24/68/24 37/71/37 52/75/52
f 51/84/51 36/80/36 23/77/23 34/79/34
f 18/101/18 12/100/12 55/108/55 43/107/43
f 47/25/47 20/21/20 22/22/22 49/26/49
f 26/113/26 15/110/15 17/111/17 10/109/10
f 9/118/9 16/120/16 14/119/14 25/122/25
f 48/74/48 21/67/21 46/73/46 52/75/52
f 51/84/51 45/82/45 20/76/20 47/83/47
f 11/50/11 9/49/9 25/51/25 27/52/27
f 60/66/60 10/61/10 17/62/17
f 59/36/59 11/33/11 54/34/54 58/35/58
f 57/60/57 43/59/43 28/58/28
f 44/65/44 19/63/19 60/66/60
f 16/56/16 9/55/9 57/60/57
f 60/66/60 17/62/17 29/64/29
f 57/60/57 18/57/18 43/59/43
f 29/64/29 44/65/44 60/66/60
f 28/58/28 16/56/16 57/60/57
f 60/20/60 58/19/58 54/18/54 10/17/10
f 59/16/59 57/15/57 9/13/9 11/14/11
f 38/23/38 47/25/47 49/26/49 40/24/40
f 42/30/42 41/29/41 48/31/48 39/28/39
f 27/52/27 25/51/25 38/53/38 40/54/40

# 57 faces
